<?xml version='1.0' encoding='utf-8'?>
<!DOCTYPE svg PUBLIC '-//W3C//DTD SVG 1.1//EN' 'http://www.w3.org/Graphics/SVG/1.1/DTD/svg11.dtd'>
<svg version="1.1" xmlns="http://www.w3.org/2000/svg" viewBox="0 0 512 512" xmlns:xlink="http://www.w3.org/1999/xlink" enable-background="new 0 0 512 512">
  <g>
    <path d="m500,472.5l-59.7-351c-1.7-9.7-10.1-16.9-20-16.9h-68.9c-19.1-44.5-51.3-91.6-95.5-91.6-44.2,0-76.4,47-95.6,91.6h-68.9c-9.9,0-18.3,7.1-20,16.9l-60.1,353.8c-2.4,11 3.1,23.6 20,23.6h449.3c0.1,0 0.1,0 0.2,0 11.1,0.1 22.9-12.6 19.2-26.4zm-244.1-419c18.8,0 37.1,23.9 51,51.1h-102c13.9-27.2 32.2-51.1 51-51.1zm-200.7,405l53.3-313.3h37.4c-4.2,14.9-6.3,26.9-6.3,33.1 0,11.2 9.1,20.2 20.2,20.2 11.2,0 20.2-9.1 20.2-20.2 0-6.2 2.8-18.5 7.7-33.1h136.1c4.9,14.6 7.7,26.9 7.7,33.1 0,11.2 9.1,20.2 20.2,20.2 11.2,0 20.2-9.1 20.2-20.2 0-6.2-2.1-18.2-6.3-33.1h37.4l53.3,313.3h-401.1z"/>
  </g>
</svg>
